<svg xmlns="http://www.w3.org/2000/svg" xmlns:xlink="http://www.w3.org/1999/xlink" width="173.459" height="167.134" viewBox="0 0 173.459 167.134">
  <defs>
    <clipPath id="clip-path">
      <rect id="Rectángulo_7" data-name="Rectángulo 7" width="143.519" height="134.574" fill="none"/>
    </clipPath>
  </defs>
  <g id="Grupo_14" data-name="Grupo 14" transform="matrix(0.966, -0.259, 0.259, 0.966, 0, 37.145)">
    <g id="Grupo_13" data-name="Grupo 13" clip-path="url(#clip-path)">
      <path id="Trazado_64" data-name="Trazado 64" d="M25.043,141.771c-2.145.948-2.939,3.017-3.885,4.884a16.834,16.834,0,0,0-1.473,6.739c-.311,5.152-.337,10.31-.589,15.456-.2,4.1-.285,8.2-.137,12.276.184,5.059.145,10.132.558,15.175a31.374,31.374,0,0,0,.673,6.344,17.042,17.042,0,0,0,4.305,7.382c-5.989.086-11.851-5.055-12.311-11.016a288.935,288.935,0,0,1-.7-32.034c.154-4.569.224-9.142.643-13.7A12.661,12.661,0,0,1,23.24,141.93c.6-.067,1.2-.107,1.8-.159" transform="translate(-7.083 -88.677)" fill="#2c9a8c"/>
      <path id="Trazado_65" data-name="Trazado 65" d="M143.519,117.745a20.743,20.743,0,0,0-.806,5.132,11.949,11.949,0,0,1-11.483,10.889c-1.024.066-2.049.151-3.074.176-1.654.041-2.336-.534-2.675-2.181a2.185,2.185,0,0,1,2.348-2.087c1.119-.037,2.238-.1,3.357-.148a7.47,7.47,0,0,0,5.471-2.7c1.653-1.874,1.8-4.226,2.1-6.531a71.938,71.938,0,0,0-.252-19.251c-.619-4.415-3.412-7.162-7.887-7.345-3.311-.136-6.625-.236-9.937-.318-12.415-.307-24.831-.387-37.25-.364-11.58.021-23.152.336-34.724.676-4.312.127-7.307,2.585-7.962,6.614a70.115,70.115,0,0,0,.01,22.713,7.578,7.578,0,0,0,7.575,6.514c1.493.042,2.984.153,4.477.2,21.889.671,43.78.8,65.674.221,1.864-.049,2.364.3,2.935,2.081-.454,1.67-1.022,2.153-2.74,2.188-16.62.335-33.24.514-49.863.134-7.095-.162-14.193-.226-21.279-.634a11.2,11.2,0,0,1-9.633-6.206,1.884,1.884,0,0,0-1.928-1.123c-6.674-.144-13.345-.386-20.008-.824-7.377-.485-14.412-7.2-15.063-14.585A298.384,298.384,0,0,1,.253,74.747C.377,71.063.4,67.369.869,63.71A16.51,16.51,0,0,1,9.6,50.965a1.758,1.758,0,0,0,1.094-1.8c-.1-7.566.119-15.13.352-22.69.291-9.47,4.343-16.911,12.342-22.084A27.152,27.152,0,0,1,37.006.365a161.365,161.365,0,0,1,25.6.289A25.832,25.832,0,0,1,84.932,20.5c1.095,4.633.812,9.372.865,14.076a1.818,1.818,0,0,1-2,1.892q-7.915.048-15.831,0a1.972,1.972,0,0,1-2.083-2.127c-.11-2.519-.2-5.039-.255-7.56a6.2,6.2,0,0,0-6.1-6.312c-6.111-.415-12.222-.4-18.336-.23a25.483,25.483,0,0,0-5.556.5,5.784,5.784,0,0,0-4.482,5.263c-.125,1.41-.74,2.266-2.212,2.374-1.65-.373-2.035-.843-2.021-2.471A10.11,10.11,0,0,1,34.479,16.6c3.24-.792,6.577-.636,9.869-.771a127.682,127.682,0,0,1,16.067.452A10.248,10.248,0,0,1,69.54,23.92a30.858,30.858,0,0,1,.549,7.222c-.009.837.233,1.139,1.107,1.127q4.62-.06,9.241.022c.944.018,1.27-.3,1.133-1.2-.412-2.724-.128-5.485-.511-8.222-1.214-8.67-9.1-16.587-17.794-17.8-3.286-.457-6.593-.443-9.893-.623a110.236,110.236,0,0,0-19.8.672c-7.9.991-15.18,7.536-17.29,15.224-1.063,3.873-.921,7.837-1.08,11.782-.13,3.213.054,6.43-.218,9.648-.177,2.086-.064,4.2-.057,6.3,0,.408-.209,1.013.619.928a86.723,86.723,0,0,1,9.761-.467c1.029.01,1.1-.5,1.1-1.3,0-4.1-.031-8.209.232-12.309.1-1.575.666-2.215,2.287-2.38a2.128,2.128,0,0,1,1.942,2.444c-.07,3.969-.093,7.939-.222,11.906-.035,1.079.2,1.435,1.341,1.38,7.886-.382,15.779-.354,23.67-.264,8.123.092,16.246.343,24.352.868,9.155.592,15.69,7.7,16.112,17.241.316,7.137.693,14.272.571,21.419-.017.977.244,1.217,1.219,1.229,7.469.094,14.938.252,22.407.4a103.841,103.841,0,0,1,12.575.577,11.781,11.781,0,0,1,9.8,10.407,27.62,27.62,0,0,0,.828,5.548ZM17.413,121.35c5.769.492,11.562.463,17.337.8,1.455.085,1.6-.412,1.439-1.6a74.734,74.734,0,0,1,.3-20.5A11.717,11.717,0,0,1,46.654,89.7c3.694-.44,7.448-.416,11.177-.523,11.1-.316,22.212-.41,33.321-.412,1.006,0,1.365-.206,1.353-1.3-.077-6.768-.267-13.533-.619-20.292a20.348,20.348,0,0,0-.621-4.84c-1.694-5.661-6.469-9.091-13-9.31-7.182-.241-14.363-.556-21.546-.721-12.93-.3-25.85.1-38.762.787-.6.052-1.2.092-1.8.16A12.66,12.66,0,0,0,5.049,64.6c-.419,4.557-.489,9.13-.643,13.7a289.03,289.03,0,0,0,.7,32.034c.46,5.96,6.322,11.1,12.311,11.016" transform="translate(0 0)" fill="#b0b932"/>
      <path id="Trazado_66" data-name="Trazado 66" d="M53.787,39.682c-1.62.164-2.186.8-2.287,2.38-.263,4.1-.235,8.205-.232,12.309,0,.8-.068,1.31-1.1,1.3a86.626,86.626,0,0,0-9.761.468c-.828.085-.617-.52-.619-.928-.007-2.1-.119-4.212.057-6.3.272-3.217.088-6.434.218-9.648.159-3.944.017-7.909,1.08-11.782,2.11-7.687,9.393-14.232,17.29-15.224a110.306,110.306,0,0,1,19.8-.672c3.3.181,6.607.166,9.893.623,8.7,1.209,16.58,9.127,17.794,17.8.383,2.738.1,5.5.511,8.222.137.9-.189,1.223-1.133,1.2q-4.619-.088-9.241-.022c-.874.012-1.117-.29-1.107-1.127a30.876,30.876,0,0,0-.549-7.222,10.248,10.248,0,0,0-9.125-7.644,127.681,127.681,0,0,0-16.067-.452c-3.292.136-6.629-.021-9.869.771a10.109,10.109,0,0,0-7.559,9.313c-.014,1.628.37,2.1,2.021,2.471q-.009,2.081-.018,4.161" transform="translate(-24.864 -7.141)" fill="#2c9a8c"/>
      <path id="Trazado_67" data-name="Trazado 67" d="M252.013,104.038c-1.2-.122-1.971-.52-2.28-1.57a1.87,1.87,0,0,1,1.044-2.457c3.107-1.22,6.255-2.342,9.424-3.391a1.9,1.9,0,0,1,2.408,1.186,1.808,1.808,0,0,1-.618,2.482c-3.246,1.608-6.765,2.519-9.979,3.75" transform="translate(-156.136 -60.369)" fill="#2c9a8c"/>
      <path id="Trazado_68" data-name="Trazado 68" d="M250.924,122.746a2.555,2.555,0,0,1,1.3.357c2.557,1.207,5.118,2.409,7.669,3.629,1.472.7,2.011,1.808,1.5,2.992-.53,1.229-1.809,1.59-3.327.882q-4.035-1.883-8.044-3.822a2.1,2.1,0,0,1,.9-4.039" transform="translate(-155.569 -76.773)" fill="#2c9a8c"/>
      <path id="Trazado_69" data-name="Trazado 69" d="M239.953,81.979a2.062,2.062,0,0,1-1.93-2.936c1.291-2.925,2.686-5.806,4.113-8.668a2.1,2.1,0,0,1,3.855,1.634c-1.327,3.06-2.8,6.058-4.275,9.052a1.758,1.758,0,0,1-1.763.919" transform="translate(-148.761 -43.257)" fill="#2c9a8c"/>
      <path id="Trazado_70" data-name="Trazado 70" d="M37.67,140.289C50.582,139.6,63.5,139.2,76.431,139.5c7.184.166,14.364.48,21.546.721,6.528.219,11.3,3.649,13,9.309a20.353,20.353,0,0,1,.621,4.84c.352,6.759.542,13.523.619,20.292.012,1.094-.347,1.3-1.353,1.3-11.109,0-22.216.1-33.321.412-3.729.106-7.483.083-11.177.523a11.716,11.716,0,0,0-10.168,10.354,74.748,74.748,0,0,0-.3,20.5c.162,1.183.016,1.68-1.44,1.6-5.774-.338-11.567-.309-17.337-.8a17.042,17.042,0,0,1-4.305-7.382,31.374,31.374,0,0,1-.673-6.344c-.413-5.043-.374-10.116-.558-15.175-.149-4.08-.064-8.177.137-12.276.252-5.146.278-10.3.589-15.456a16.834,16.834,0,0,1,1.473-6.739c.946-1.867,1.741-3.936,3.885-4.884" transform="translate(-19.709 -87.196)" fill="#2c9a8c"/>
      <path id="Trazado_71" data-name="Trazado 71" d="M249.067,282.348c-1.746,1-3.224,1.87-4.719,2.706-1.388.776-2.629.535-3.26-.593s-.18-2.264,1.232-3.093c1.483-.871,2.974-1.729,4.645-2.7-1.654-.964-3.2-1.873-4.748-2.763a2.271,2.271,0,0,1-1.318-1.526,2.02,2.02,0,0,1,.7-2.135,2.119,2.119,0,0,1,2.486-.118c1.606.908,3.208,1.825,4.977,2.834,0-1.9-.012-3.608,0-5.319s.828-2.666,2.2-2.628c1.336.037,2,.892,2.014,2.623.011,1.711,0,3.423,0,5.37,1.688-.971,3.2-1.85,4.719-2.711,1.415-.8,2.619-.6,3.3.516s.277,2.277-1.138,3.121c-1.51.9-3.042,1.767-4.7,2.729,1.677.974,3.226,1.851,4.752,2.766,1.358.814,1.738,1.888,1.122,3.01-.651,1.184-1.8,1.419-3.236.624-1.26-.7-2.531-1.386-3.74-2.167-1-.646-1.123-.264-1.089.691.051,1.445.03,2.894.007,4.34-.023,1.493-.868,2.448-2.1,2.428s-2.083-.961-2.109-2.471c-.031-1.762-.007-3.525-.007-5.532" transform="translate(-150.626 -167.015)" fill="#2c9a8c"/>
      <path id="Trazado_72" data-name="Trazado 72" d="M129.775,274.989c1.679-.958,3.16-1.807,4.645-2.65,1.516-.86,2.723-.685,3.4.488.667,1.153.211,2.287-1.313,3.184-1.474.868-2.961,1.713-4.554,2.632,1.487.867,2.833,1.654,4.181,2.437,1.868,1.085,2.391,2.128,1.686,3.372s-1.932,1.352-3.742.309q-1.932-1.113-3.87-2.216c-.067-.038-.176,0-.428,0,0,1.752.011,3.5,0,5.246-.013,1.6-.846,2.58-2.121,2.551s-2.079-1-2.094-2.623c-.016-1.714,0-3.428,0-5.381-1.646.947-3.112,1.8-4.59,2.637s-2.734.642-3.389-.513c-.647-1.14-.163-2.288,1.337-3.163,1.445-.843,2.892-1.683,4.54-2.642-1.649-.961-3.181-1.864-4.724-2.749a2.342,2.342,0,0,1-1.3-1.373,2.041,2.041,0,0,1,.634-2.283,2.1,2.1,0,0,1,2.483-.152c1.611.907,3.213,1.829,5.013,2.856,0-1.958,0-3.749,0-5.54a2.13,2.13,0,0,1,1.581-2.335,2,2,0,0,1,2.622,2.052c.046,1.865.011,3.731.011,5.861" transform="translate(-73.371 -167)" fill="#2c9a8c"/>
      <path id="Trazado_73" data-name="Trazado 73" d="M191.563,282.341c0,1.934.012,3.643,0,5.352-.016,1.685-.877,2.7-2.213,2.65-1.263-.047-1.994-1.01-2-2.668-.009-1.68,0-3.361,0-5.128a7.9,7.9,0,0,0-2.595,1.258c-.746.378-1.452.834-2.187,1.236-1.416.776-2.611.558-3.259-.58s-.236-2.235,1.206-3.084c1.483-.872,2.974-1.729,4.673-2.717-1.632-.95-3.15-1.855-4.689-2.722a2.362,2.362,0,0,1-1.479-2.183,2.13,2.13,0,0,1,3.329-1.613c1.625.875,3.21,1.826,5,2.851,0-2-.016-3.8,0-5.6.018-1.554.791-2.408,2.1-2.393,1.268.015,2.082.93,2.105,2.449.028,1.769.006,3.539.006,5.5,1.607-.916,3.083-1.761,4.563-2.6,1.523-.865,2.746-.691,3.4.477s.2,2.305-1.3,3.19c-1.475.867-2.957,1.721-4.543,2.643,1.68.97,3.215,1.834,4.727,2.735,1.313.782,1.736,1.944,1.155,3.031-.609,1.14-1.868,1.4-3.251.633-1.529-.85-3.037-1.736-4.749-2.719" transform="translate(-111.964 -167.007)" fill="#2c9a8c"/>
      <path id="Trazado_74" data-name="Trazado 74" d="M310.852,282.326c-1.771,1.007-3.29,1.889-4.825,2.74-1.393.772-2.609.518-3.236-.638-.612-1.127-.213-2.209,1.141-3.006,1.522-.9,3.058-1.767,4.768-2.753-1.68-.979-3.261-1.9-4.845-2.823a2.119,2.119,0,1,1,2.035-3.685c1.617.882,3.2,1.827,4.963,2.84,0-2.017-.015-3.82,0-5.623.016-1.491.728-2.316,1.984-2.367a2.12,2.12,0,0,1,2.219,2.317c.036,1.814.008,3.629.008,5.64,1.642-.94,3.154-1.816,4.675-2.673,1.42-.8,2.658-.6,3.288.518s.21,2.322-1.157,3.133c-1.511.9-3.04,1.763-4.684,2.713,1.706.989,3.272,1.871,4.813,2.8a2.163,2.163,0,0,1,1.019,3.053c-.646,1.079-1.826,1.314-3.154.577-1.534-.851-3.047-1.741-4.8-2.747,0,2.04.01,3.875,0,5.71a2.144,2.144,0,0,1-1.586,2.213,2.008,2.008,0,0,1-2.23-.777,2.265,2.265,0,0,1-.4-1.59c.007-1.765,0-3.53,0-5.57" transform="translate(-189.22 -167.014)" fill="#2c9a8c"/>
    </g>
  </g>
</svg>
