<svg id="Grupo_12" data-name="Grupo 12" xmlns="http://www.w3.org/2000/svg" xmlns:xlink="http://www.w3.org/1999/xlink" width="170.483" height="70.22" viewBox="0 0 170.483 70.22">
  <defs>
    <clipPath id="clip-path">
      <rect id="Rectángulo_1" data-name="Rectángulo 1" width="170.483" height="70.22" fill="none"/>
    </clipPath>
  </defs>
  <g id="Grupo_7" data-name="Grupo 7" clip-path="url(#clip-path)">
    <path id="Trazado_30" data-name="Trazado 30" d="M48.626,78.457a45.681,45.681,0,0,1-6.684,4.184,10.4,10.4,0,0,1-4.767,1.016A7.769,7.769,0,0,1,31.647,81.6a9.6,9.6,0,0,1-2.709-6.007H48.626a19.045,19.045,0,0,0-.93-5.275,13.458,13.458,0,0,0-2.313-4.287,10.819,10.819,0,0,0-3.7-2.905,11.466,11.466,0,0,0-5.077-1.072,14.624,14.624,0,0,0-5.331.931,11.666,11.666,0,0,0-4.089,2.623,11.448,11.448,0,0,0-2.6,4.033,14.237,14.237,0,0,0-.9,5.161,15.793,15.793,0,0,0,.809,5.145l-8.14,3.264a8.846,8.846,0,0,1-1.808.335,4.324,4.324,0,0,1-3.017-1.1,4.081,4.081,0,0,1-1.213-3.187V67.468H20.477V63.293H10.324V56.862L5.641,58.329v4.964H0v4.175H5.641V80.386A8.187,8.187,0,0,0,7.56,85.97a7.079,7.079,0,0,0,5.641,2.2,10,10,0,0,0,3.385-.677c1.116-.406,7.409-3.365,9.512-4.367A11.961,11.961,0,0,0,27.19,84.5,11.442,11.442,0,0,0,31.336,87.3a14.955,14.955,0,0,0,5.613.987,13.316,13.316,0,0,0,5.641-1.044,32.654,32.654,0,0,0,6.072-3.874ZM32.437,67.665a6.854,6.854,0,0,1,4-1.213q4.343,0,6.657,5.077H29.474a9.315,9.315,0,0,1,2.963-3.864" transform="translate(0 -37.09)" fill="#fff"/>
    <path id="Trazado_31" data-name="Trazado 31" d="M226.806,119.155v5.886h4.682V113.478c-2.521,3.034-4.682,5.677-4.682,5.677" transform="translate(-147.943 -74.02)" fill="#a8be19"/>
    <path id="Trazado_32" data-name="Trazado 32" d="M231.488,58.669V41.9l-4.682,1.467V66.737s2.106-2.6,4.682-5.627Z" transform="translate(-147.943 -27.33)" fill="#2ea89d"/>
    <path id="Trazado_33" data-name="Trazado 33" d="M370.01,80.108a13.47,13.47,0,0,0-2.764-4.118,13.056,13.056,0,0,0-18.5,0,13.028,13.028,0,0,0-2.736,4.118,12.567,12.567,0,0,0-.987,4.935,13.362,13.362,0,0,0,.144,1.871,95.4,95.4,0,0,1-8.58,5.463,10.4,10.4,0,0,1-4.767,1.016,7.77,7.77,0,0,1-5.528-2.059,9.6,9.6,0,0,1-2.708-6.007h19.687a19.04,19.04,0,0,0-.93-5.275,13.467,13.467,0,0,0-2.313-4.287,10.822,10.822,0,0,0-3.7-2.905,11.472,11.472,0,0,0-5.077-1.072,14.628,14.628,0,0,0-5.331.931,11.659,11.659,0,0,0-4.089,2.623,11.438,11.438,0,0,0-2.6,4.033,14.231,14.231,0,0,0-.9,5.161,15.655,15.655,0,0,0,.9,5.444,12.393,12.393,0,0,0,2.6,4.259,11.437,11.437,0,0,0,4.145,2.792,14.956,14.956,0,0,0,5.613.987,13.318,13.318,0,0,0,5.641-1.045c2.7-1.234,7.258-4.647,9.217-6.049a12.682,12.682,0,0,0,2.294,3.145,13.14,13.14,0,0,0,18.5,0,13.191,13.191,0,0,0,2.764-4.061,12.578,12.578,0,0,0,0-9.9M327.079,77.4a6.853,6.853,0,0,1,4-1.213q4.343,0,6.657,5.077H324.088a9.157,9.157,0,0,1,2.99-3.864m38.107,10.662a8.382,8.382,0,0,1-1.72,2.51,8.083,8.083,0,0,1-2.482,1.692,7.2,7.2,0,0,1-2.934.621v.056a7.19,7.19,0,0,1-2.933-.621,8.046,8.046,0,0,1-2.482-1.692,8,8,0,0,1-2.313-5.641,7.588,7.588,0,0,1,.648-3.1,8.913,8.913,0,0,1,1.693-2.566,7.514,7.514,0,0,1,2.453-1.721,7.213,7.213,0,0,1,2.933-.621,7.344,7.344,0,0,1,2.989.621,7.853,7.853,0,0,1,2.482,1.721,8.253,8.253,0,0,1,1.693,2.566,7.91,7.91,0,0,1,.62,3.1,7.394,7.394,0,0,1-.649,3.074" transform="translate(-207.645 -46.826)" fill="#fff"/>
    <path id="Trazado_34" data-name="Trazado 34" d="M204.875,73.391a8.93,8.93,0,0,0-4.071,3.454h0a7.551,7.551,0,0,0-3.83-3.82,4.308,4.308,0,0,0-1.6-.368c-1.635,0-3.642-.22-7.36,3.877-1.3,1.428-2.672,3.013-3.935,4.5-2.575,3.023-4.682,5.626-4.682,5.626a22.034,22.034,0,0,1-1.582,1.852,20.511,20.511,0,0,1-5.222,3.994v.016a12.05,12.05,0,0,1-4.648,1.073,9.1,9.1,0,0,1-5.923-2.228,7.654,7.654,0,0,1-1.89-2.566,7.957,7.957,0,0,1-.705-3.385,7.745,7.745,0,0,1,.705-3.243,9.407,9.407,0,0,1,1.834-2.708,8.559,8.559,0,0,1,2.623-1.833,7.5,7.5,0,0,1,3.131-.677,9.9,9.9,0,0,1,3.018.564,17.22,17.22,0,0,1,3.638,1.749l1.185-4.795-1.974-.79q-.846-.339-1.8-.621a15.289,15.289,0,0,0-2.172-.451,20.45,20.45,0,0,0-2.792-.169,14.353,14.353,0,0,0-5.416.959,10.84,10.84,0,0,0-3.977,2.708,11.944,11.944,0,0,0-2.454,4.118,15.163,15.163,0,0,0-.846,5.134,13.987,13.987,0,0,0,.93,5.105,12.127,12.127,0,0,0,2.679,4.175,12.628,12.628,0,0,0,4.174,2.792,13.9,13.9,0,0,0,5.416,1.015,18.521,18.521,0,0,0,3.836-.395,6.551,6.551,0,0,0,1.5-.459v.033a14.352,14.352,0,0,0,5.6-3.9c.41-.451.786-.9,1.136-1.338,0,0,2.161-2.644,4.682-5.677,1.736-2.09,3.644-4.365,5.135-6.089,2.506-2.9,4-2.886,4.586-2.9a3.065,3.065,0,0,1,3.173,3.022,5.787,5.787,0,0,1,.053.728v16.8h4.682V82.361a1.1,1.1,0,0,1,.051-.338,7.49,7.49,0,0,1,3.136-4.086,7.089,7.089,0,0,1,4.231-.254,12.946,12.946,0,0,1,1.495.536c.292.132.178-.057.289,0l2.506-3.92a9.2,9.2,0,0,0-8.541-.9m-7.848,14.65c0-.276,0-.852,0-1.365,0,.513,0,1.089,0,1.365" transform="translate(-100.535 -47.25)" fill="#fff"/>
    <path id="Trazado_35" data-name="Trazado 35" d="M475.968,128.686a3.819,3.819,0,1,0-3.82,3.82,3.82,3.82,0,0,0,3.82-3.82" transform="translate(-305.485 -81.449)" fill="#fff"/>
    <path id="Trazado_36" data-name="Trazado 36" d="M123.865,50.87c-.233,1.512,2.61.221,4.75,0a27.442,27.442,0,0,1,3.635-.147l-6.875-1.633a2.979,2.979,0,0,0-1.51,1.781" transform="translate(-80.787 -32.02)" fill="#a8be19"/>
    <path id="Trazado_37" data-name="Trazado 37" d="M139.07,15.437a9.436,9.436,0,0,1-.794-5.5A1.1,1.1,0,0,0,136.9,8.684a3.945,3.945,0,0,0-2.347,2.667c-.968,2.8.161,6.882.161,6.882H120.221a5.8,5.8,0,0,0-3.048.832,3.012,3.012,0,0,0-1.607,3.364.94.94,0,0,0,1.2.7,11.545,11.545,0,0,1,3.146-.419l6.875,1.634a19.756,19.756,0,0,0,6.687,1.849c2.689.119,5.27-.054,7.743-2.527a38.683,38.683,0,0,0,3.118-3.548,11.714,11.714,0,0,1-5.269-4.678" transform="translate(-75.327 -5.639)" fill="#2ea89d"/>
    <path id="Trazado_38" data-name="Trazado 38" d="M108.093,7.985a5.8,5.8,0,0,0,3.047-.832,3.011,3.011,0,0,0,1.607-3.364.94.94,0,0,0-1.2-.7,11.526,11.526,0,0,1-3.146.419l-6.874-1.633A19.773,19.773,0,0,0,94.836.028c-2.688-.119-5.269.054-7.742,2.527A38.719,38.719,0,0,0,83.975,6.1a11.714,11.714,0,0,1,5.269,4.678,9.435,9.435,0,0,1,.794,5.5,1.1,1.1,0,0,0,1.375,1.249,3.946,3.946,0,0,0,2.347-2.667c.968-2.8-.162-6.882-.162-6.882Z" transform="translate(-54.776 0)" fill="#a8be19"/>
    <path id="Trazado_39" data-name="Trazado 39" d="M142.827,3.618c.233-1.512-2.61-.221-4.749,0a27.59,27.59,0,0,1-3.635.147L141.317,5.4a2.979,2.979,0,0,0,1.51-1.78" transform="translate(-87.696 -1.888)" fill="#2ea89d"/>
    <path id="Trazado_40" data-name="Trazado 40" d="M21.4,170.355a.916.916,0,0,1,.4-.08h.643a.316.316,0,0,1,.273.122.7.7,0,0,1,.121.268l.07.613a3.181,3.181,0,0,1,.337-.418,1.993,1.993,0,0,1,.455-.354,2.446,2.446,0,0,1,.617-.246,3.26,3.26,0,0,1,.824-.093,3.486,3.486,0,0,1,.808.087,2.42,2.42,0,0,1,.655.255,2.377,2.377,0,0,1,.528.415,3.144,3.144,0,0,1,.426.565,2.037,2.037,0,0,1,.414-.549,2.555,2.555,0,0,1,.6-.425,3.231,3.231,0,0,1,.747-.272,3.7,3.7,0,0,1,.846-.1,3.008,3.008,0,0,1,1.32.274,2.7,2.7,0,0,1,.951.75,3.307,3.307,0,0,1,.576,1.113,4.647,4.647,0,0,1,.194,1.362v4.243a.5.5,0,0,1-.108.347.4.4,0,0,1-.312.118h-.967a.458.458,0,0,1-.341-.1.506.506,0,0,1-.086-.337v-4.271a2.261,2.261,0,0,0-.1-.654,1.6,1.6,0,0,0-.3-.563,1.5,1.5,0,0,0-.5-.394,1.605,1.605,0,0,0-.722-.15,1.675,1.675,0,0,0-.649.124,1.463,1.463,0,0,0-.515.356,1.678,1.678,0,0,0-.34.559,2.039,2.039,0,0,0-.124.728v4.24q0,.457-.413.457h-.974a.445.445,0,0,1-.337-.1.522.522,0,0,1-.083-.337v-4.265a2.279,2.279,0,0,0-.092-.645,1.669,1.669,0,0,0-.287-.563,1.448,1.448,0,0,0-.5-.4,1.613,1.613,0,0,0-.725-.152,1.631,1.631,0,0,0-.585.112,1.72,1.72,0,0,0-.531.321,1.663,1.663,0,0,0-.391.514,1.587,1.587,0,0,0-.159.693v4.443a.36.36,0,0,1-.108.27.376.376,0,0,1-.274.1H21.64a.423.423,0,0,1-.308-.1.385.385,0,0,1-.1-.284V170.65a.3.3,0,0,1,.162-.3" transform="translate(-13.85 -110.985)" fill="#2ea89d"/>
    <path id="Trazado_41" data-name="Trazado 41" d="M60.442,162.81a.335.335,0,0,1,.375-.383h1.07a.413.413,0,0,1,.285.1.364.364,0,0,1,.109.287v.952a.451.451,0,0,1-.1.278.345.345,0,0,1-.287.13H60.824q-.382,0-.382-.408Zm0,2.817a.412.412,0,0,1,.1-.277.348.348,0,0,1,.28-.111h1.056a.384.384,0,0,1,.143.029.408.408,0,0,1,.131.083.5.5,0,0,1,.1.124.32.32,0,0,1,.038.153v7.31q0,.382-.4.382H60.824a.337.337,0,0,1-.382-.382Z" transform="translate(-39.426 -105.949)" fill="#2ea89d"/>
    <path id="Trazado_42" data-name="Trazado 42" d="M71.633,176.031a1.362,1.362,0,0,0,.337.362,2.327,2.327,0,0,0,.417.252,2.062,2.062,0,0,0,.407.143,1.433,1.433,0,0,0,.309.045,2.753,2.753,0,0,0,.42-.039,1.734,1.734,0,0,0,.454-.137,1.088,1.088,0,0,0,.363-.267.623.623,0,0,0,.15-.429.679.679,0,0,0-.118-.414.922.922,0,0,0-.318-.264,2.255,2.255,0,0,0-.458-.175c-.172-.047-.353-.1-.544-.152a5.336,5.336,0,0,1-1.139-.43,2.912,2.912,0,0,1-.773-.575,2.072,2.072,0,0,1-.442-.712,2.469,2.469,0,0,1-.14-.846,2.159,2.159,0,0,1,.2-.942,2.133,2.133,0,0,1,.572-.732,2.687,2.687,0,0,1,.888-.474,3.713,3.713,0,0,1,1.148-.168,3.614,3.614,0,0,1,.8.079,2.636,2.636,0,0,1,.65.238,2.751,2.751,0,0,1,.563.4,6.058,6.058,0,0,1,.537.566.351.351,0,0,1,.1.222.282.282,0,0,1-.127.217q-.1.076-.226.191t-.257.223a2.634,2.634,0,0,1-.242.184.374.374,0,0,1-.191.077.367.367,0,0,1-.274-.165,2.828,2.828,0,0,0-.28-.29,1.43,1.43,0,0,0-.293-.2,1.384,1.384,0,0,0-.331-.121,1.714,1.714,0,0,0-.388-.041,1.347,1.347,0,0,0-.359.051,1.208,1.208,0,0,0-.344.153.992.992,0,0,0-.261.245.531.531,0,0,0-.105.321.5.5,0,0,0,.13.347,1.186,1.186,0,0,0,.33.248,2.417,2.417,0,0,0,.435.175c.157.047.3.089.438.127a8.18,8.18,0,0,1,1.073.381,3.292,3.292,0,0,1,.842.525,2.208,2.208,0,0,1,.549.725,2.269,2.269,0,0,1,.2.977,2.333,2.333,0,0,1-.234,1.059,2.3,2.3,0,0,1-.65.792,2.972,2.972,0,0,1-.984.5,4.248,4.248,0,0,1-1.236.171,3.989,3.989,0,0,1-.814-.086,3.447,3.447,0,0,1-.792-.267,3.043,3.043,0,0,1-.7-.465,2.52,2.52,0,0,1-.537-.671.565.565,0,0,1-.1-.286.245.245,0,0,1,.041-.143.55.55,0,0,1,.112-.118l.712-.547a.345.345,0,0,1,.172-.058.236.236,0,0,1,.159.061,1.273,1.273,0,0,1,.153.162" transform="translate(-45.845 -110.939)" fill="#2ea89d"/>
    <path id="Trazado_43" data-name="Trazado 43" d="M102.852,165.157a3.492,3.492,0,0,1,.172-1.091,2.805,2.805,0,0,1,.5-.925,2.456,2.456,0,0,1,.811-.64,2.421,2.421,0,0,1,1.091-.239h.064a.368.368,0,0,1,.287.112.431.431,0,0,1,.1.3v.878a.491.491,0,0,1-.1.312.323.323,0,0,1-.271.127.822.822,0,0,0-.242.048.942.942,0,0,0-.28.149.926.926,0,0,0-.229.261.716.716,0,0,0-.1.375v1.031h.922a.4.4,0,0,1,.287.1.422.422,0,0,1,.1.318v.783a.482.482,0,0,1-.1.334.368.368,0,0,1-.287.111h-.922v5.3a.368.368,0,0,1-.134.309.46.46,0,0,1-.292.1h-.986a.377.377,0,0,1-.3-.117.432.432,0,0,1-.1-.3v-5.3h-.63a.41.41,0,0,1-.3-.111.447.447,0,0,1-.115-.334v-.783a.393.393,0,0,1,.115-.318.452.452,0,0,1,.3-.1h.63Z" transform="translate(-66.409 -105.842)" fill="#2ea89d"/>
    <path id="Trazado_44" data-name="Trazado 44" d="M117.123,162.81a.335.335,0,0,1,.376-.383h1.069a.415.415,0,0,1,.286.1.364.364,0,0,1,.109.287v.952a.447.447,0,0,1-.1.278.343.343,0,0,1-.287.13h-1.069q-.382,0-.382-.408Zm0,2.817a.409.409,0,0,1,.1-.277.347.347,0,0,1,.28-.111h1.056a.389.389,0,0,1,.143.029.4.4,0,0,1,.13.083.507.507,0,0,1,.1.124.32.32,0,0,1,.038.153v7.31q0,.382-.4.382h-1.056a.338.338,0,0,1-.382-.382Z" transform="translate(-76.398 -105.949)" fill="#2ea89d"/>
    <path id="Trazado_45" data-name="Trazado 45" d="M128.452,170.5a.353.353,0,0,1,.146-.127.214.214,0,0,1,.152-.054c.068,0,.132,0,.191,0h.642a.318.318,0,0,1,.273.121.7.7,0,0,1,.121.267l.07.674a2.838,2.838,0,0,1,.359-.426,2.421,2.421,0,0,1,.506-.376,2.873,2.873,0,0,1,.668-.267,3.234,3.234,0,0,1,.846-.1,3.149,3.149,0,0,1,1.336.271,2.842,2.842,0,0,1,.986.741,3.221,3.221,0,0,1,.608,1.107,4.419,4.419,0,0,1,.207,1.368v4.243a.483.483,0,0,1-.108.344.408.408,0,0,1-.312.115h-.967a.456.456,0,0,1-.34-.1.5.5,0,0,1-.086-.337v-4.238a1.954,1.954,0,0,0-.114-.658,1.808,1.808,0,0,0-.334-.576,1.622,1.622,0,0,0-.544-.407,1.775,1.775,0,0,0-1.359-.035,1.981,1.981,0,0,0-.575.334,1.823,1.823,0,0,0-.432.525,1.455,1.455,0,0,0-.178.7v4.122a2.244,2.244,0,0,1-.013.242.724.724,0,0,1-.054.217.371.371,0,0,1-.117.153.324.324,0,0,1-.2.057h-1.05a.422.422,0,0,1-.308-.1.384.384,0,0,1-.1-.284v-7.323a.324.324,0,0,1,.077-.191" transform="translate(-83.737 -111.021)" fill="#2ea89d"/>
    <path id="Trazado_46" data-name="Trazado 46" d="M160.787,177.955a.32.32,0,0,1-.172.3.536.536,0,0,1-.175.057,1.265,1.265,0,0,1-.206.016h-.8a.33.33,0,0,1-.283-.108.737.737,0,0,1-.118-.274l-.039-.54a3.924,3.924,0,0,1-.493.417,3.51,3.51,0,0,1-.582.337,3.334,3.334,0,0,1-.661.223,3.2,3.2,0,0,1-.719.08,4.036,4.036,0,0,1-1.1-.15,4.24,4.24,0,0,1-1-.42,4.047,4.047,0,0,1-.843-.652,4.189,4.189,0,0,1-.648-.846,4.254,4.254,0,0,1-.42-1,4.221,4.221,0,0,1,0-2.227,4.246,4.246,0,0,1,.42-1,4.116,4.116,0,0,1,1.492-1.492,4.274,4.274,0,0,1,1-.42,4.064,4.064,0,0,1,1.1-.15,3.423,3.423,0,0,1,.776.086,3.343,3.343,0,0,1,.691.242,3.163,3.163,0,0,1,.595.376,3.652,3.652,0,0,1,.5.481l.089-.681c.021-.076.041-.139.06-.188a.367.367,0,0,1,.07-.117.209.209,0,0,1,.1-.061.678.678,0,0,1,.159-.016h.636a1.12,1.12,0,0,1,.2.018.723.723,0,0,1,.185.061.311.311,0,0,1,.178.3Zm-6.617-3.671a2.611,2.611,0,0,0,.179.964,2.5,2.5,0,0,0,.5.8,2.377,2.377,0,0,0,.748.544,2.185,2.185,0,0,0,.938.2,2.332,2.332,0,0,0,.964-.2,2.468,2.468,0,0,0,.78-.544,2.579,2.579,0,0,0,.522-.8,2.519,2.519,0,0,0,0-1.922,2.58,2.58,0,0,0-.522-.8,2.524,2.524,0,0,0-.78-.548,2.306,2.306,0,0,0-.964-.2,2.161,2.161,0,0,0-.938.2,2.432,2.432,0,0,0-.748.548,2.5,2.5,0,0,0-.5.8,2.593,2.593,0,0,0-.179.958" transform="translate(-99.397 -110.961)" fill="#2ea89d"/>
    <path id="Trazado_47" data-name="Trazado 47" d="M181.421,170.5a.353.353,0,0,1,.146-.127.214.214,0,0,1,.152-.054c.068,0,.132,0,.191,0h.642a.318.318,0,0,1,.273.121.7.7,0,0,1,.121.267l.07.674a2.839,2.839,0,0,1,.359-.426,2.421,2.421,0,0,1,.506-.376,2.874,2.874,0,0,1,.668-.267,3.234,3.234,0,0,1,.846-.1,3.149,3.149,0,0,1,1.336.271,2.842,2.842,0,0,1,.986.741,3.221,3.221,0,0,1,.608,1.107,4.419,4.419,0,0,1,.207,1.368v4.243a.483.483,0,0,1-.108.344.408.408,0,0,1-.312.115h-.967a.456.456,0,0,1-.34-.1.5.5,0,0,1-.086-.337v-4.238a1.953,1.953,0,0,0-.114-.658,1.807,1.807,0,0,0-.334-.576,1.621,1.621,0,0,0-.544-.407,1.775,1.775,0,0,0-1.359-.035,1.98,1.98,0,0,0-.575.334,1.823,1.823,0,0,0-.432.525,1.455,1.455,0,0,0-.178.7v4.122a2.244,2.244,0,0,1-.013.242.732.732,0,0,1-.054.217.371.371,0,0,1-.117.153.324.324,0,0,1-.2.057h-1.05a.421.421,0,0,1-.308-.1.384.384,0,0,1-.1-.284v-7.323a.324.324,0,0,1,.077-.191" transform="translate(-118.288 -111.021)" fill="#2ea89d"/>
    <path id="Trazado_48" data-name="Trazado 48" d="M205.312,170.9a.389.389,0,0,1,.42-.419h5.751a.508.508,0,0,1,.305.093.339.339,0,0,1,.128.3v.821a.761.761,0,0,1-.026.216.453.453,0,0,1-.121.178q-1.069,1.228-2.122,2.443t-2.121,2.443h4a.442.442,0,0,1,.305.1.415.415,0,0,1,.114.324v.732a.477.477,0,0,1-.114.3.371.371,0,0,1-.305.143h-5.885a.4.4,0,0,1-.306-.137.443.443,0,0,1-.127-.309v-.663a.667.667,0,0,1,.016-.143.327.327,0,0,1,.067-.137q.28-.318.643-.733t.763-.876q.4-.462.824-.943l.827-.942.767-.876.642-.732h-4.021a.425.425,0,0,1-.309-.108.446.446,0,0,1-.111-.336Z" transform="translate(-133.852 -111.2)" fill="#2ea89d"/>
    <path id="Trazado_49" data-name="Trazado 49" d="M236.2,177.955a.32.32,0,0,1-.172.3.536.536,0,0,1-.175.057,1.265,1.265,0,0,1-.206.016h-.8a.33.33,0,0,1-.283-.108.738.738,0,0,1-.118-.274l-.039-.54a3.927,3.927,0,0,1-.493.417,3.511,3.511,0,0,1-.582.337,3.333,3.333,0,0,1-.661.223,3.2,3.2,0,0,1-.719.08,4.036,4.036,0,0,1-1.1-.15,4.241,4.241,0,0,1-1-.42,4.048,4.048,0,0,1-.843-.652,4.188,4.188,0,0,1-.648-.846,4.255,4.255,0,0,1-.42-1,4.22,4.22,0,0,1,0-2.227,4.247,4.247,0,0,1,.42-1,4.116,4.116,0,0,1,1.492-1.492,4.275,4.275,0,0,1,1-.42,4.064,4.064,0,0,1,1.1-.15,3.423,3.423,0,0,1,.776.086,3.342,3.342,0,0,1,.691.242,3.175,3.175,0,0,1,.595.376,3.649,3.649,0,0,1,.5.481l.089-.681c.021-.076.041-.139.06-.188a.367.367,0,0,1,.07-.117.209.209,0,0,1,.1-.061.679.679,0,0,1,.159-.016h.636a1.12,1.12,0,0,1,.2.018.726.726,0,0,1,.185.061.331.331,0,0,1,.13.115.328.328,0,0,1,.048.182Zm-6.617-3.671a2.613,2.613,0,0,0,.179.964,2.5,2.5,0,0,0,.5.8,2.377,2.377,0,0,0,.748.544,2.185,2.185,0,0,0,.938.2,2.332,2.332,0,0,0,.964-.2,2.469,2.469,0,0,0,.78-.544,2.577,2.577,0,0,0,.522-.8,2.518,2.518,0,0,0,0-1.922,2.578,2.578,0,0,0-.522-.8,2.524,2.524,0,0,0-.78-.548,2.306,2.306,0,0,0-.964-.2,2.161,2.161,0,0,0-.938.2,2.431,2.431,0,0,0-.748.548,2.5,2.5,0,0,0-.5.8,2.6,2.6,0,0,0-.179.958" transform="translate(-148.591 -110.961)" fill="#2ea89d"/>
    <path id="Trazado_50" data-name="Trazado 50" d="M256.7,176.031a1.363,1.363,0,0,0,.337.362,2.324,2.324,0,0,0,.417.252,2.061,2.061,0,0,0,.407.143,1.433,1.433,0,0,0,.309.045,2.754,2.754,0,0,0,.42-.039,1.735,1.735,0,0,0,.454-.137,1.089,1.089,0,0,0,.363-.267.623.623,0,0,0,.15-.429.679.679,0,0,0-.118-.414.921.921,0,0,0-.318-.264,2.254,2.254,0,0,0-.458-.175c-.172-.047-.353-.1-.544-.152a5.334,5.334,0,0,1-1.139-.43,2.911,2.911,0,0,1-.773-.575,2.07,2.07,0,0,1-.442-.712,2.47,2.47,0,0,1-.14-.846,2.158,2.158,0,0,1,.2-.942,2.133,2.133,0,0,1,.572-.732,2.683,2.683,0,0,1,.888-.474,3.713,3.713,0,0,1,1.148-.168,3.615,3.615,0,0,1,.8.079,2.629,2.629,0,0,1,.649.238,2.742,2.742,0,0,1,.563.4,6.067,6.067,0,0,1,.537.566.351.351,0,0,1,.1.222.282.282,0,0,1-.127.217q-.1.076-.226.191t-.257.223a2.622,2.622,0,0,1-.242.184.374.374,0,0,1-.191.077.367.367,0,0,1-.274-.165,2.833,2.833,0,0,0-.28-.29,1.425,1.425,0,0,0-.293-.2,1.382,1.382,0,0,0-.331-.121,1.716,1.716,0,0,0-.388-.041,1.348,1.348,0,0,0-.359.051,1.208,1.208,0,0,0-.344.153.992.992,0,0,0-.261.245.53.53,0,0,0-.1.321.5.5,0,0,0,.13.347,1.188,1.188,0,0,0,.33.248,2.42,2.42,0,0,0,.435.175c.157.047.3.089.438.127a8.186,8.186,0,0,1,1.073.381,3.293,3.293,0,0,1,.842.525,2.208,2.208,0,0,1,.549.725,2.269,2.269,0,0,1,.2.977,2.333,2.333,0,0,1-.234,1.059,2.3,2.3,0,0,1-.65.792,2.972,2.972,0,0,1-.984.5,4.249,4.249,0,0,1-1.237.171,3.989,3.989,0,0,1-.814-.086,3.447,3.447,0,0,1-.792-.267,3.044,3.044,0,0,1-.7-.465,2.519,2.519,0,0,1-.537-.671.565.565,0,0,1-.1-.286.245.245,0,0,1,.041-.143.552.552,0,0,1,.112-.118l.712-.547a.345.345,0,0,1,.172-.058.236.236,0,0,1,.159.061,1.271,1.271,0,0,1,.153.162" transform="translate(-166.565 -110.939)" fill="#2ea89d"/>
    <path id="Trazado_51" data-name="Trazado 51" d="M294.052,173.174a4.222,4.222,0,0,1-.493.42,3.443,3.443,0,0,1-1.234.566,3.111,3.111,0,0,1-.722.083,3.915,3.915,0,0,1-1.6-.328,4.082,4.082,0,0,1-1.291-.894,4.145,4.145,0,0,1-.862-1.327,4.406,4.406,0,0,1,0-3.257,4.14,4.14,0,0,1,.862-1.327,4.079,4.079,0,0,1,1.291-.893,3.9,3.9,0,0,1,1.6-.328,3.192,3.192,0,0,1,1.368.277,3.512,3.512,0,0,1,1.05.754V164a.361.361,0,0,1,.394-.381h1.043a.422.422,0,0,1,.274.1.34.34,0,0,1,.127.276v9.714q0,.382-.407.382H294.5a.306.306,0,0,1-.261-.1.954.954,0,0,1-.127-.287Zm-4.727-3.105a2.6,2.6,0,0,0,.178.964,2.427,2.427,0,0,0,.5.792,2.394,2.394,0,0,0,.748.535,2.224,2.224,0,0,0,.938.2,2.344,2.344,0,0,0,.948-.194,2.466,2.466,0,0,0,.776-.528,2.542,2.542,0,0,0,.525-.776,2.488,2.488,0,0,0,.207-.945v-.045a2.472,2.472,0,0,0-.191-.961,2.6,2.6,0,0,0-.522-.8,2.529,2.529,0,0,0-.78-.554,2.274,2.274,0,0,0-.964-.207,2.135,2.135,0,0,0-.938.207,2.437,2.437,0,0,0-.748.554,2.537,2.537,0,0,0-.5.8,2.615,2.615,0,0,0-.178.961" transform="translate(-187.557 -106.726)" fill="#a8be19"/>
    <path id="Trazado_52" data-name="Trazado 52" d="M316.409,162.81a.335.335,0,0,1,.376-.383h1.069a.414.414,0,0,1,.286.1.364.364,0,0,1,.109.287v.952a.447.447,0,0,1-.1.278.343.343,0,0,1-.286.13h-1.069q-.382,0-.382-.408Zm0,2.817a.409.409,0,0,1,.1-.277.347.347,0,0,1,.28-.111h1.056a.389.389,0,0,1,.143.029.408.408,0,0,1,.131.083.516.516,0,0,1,.1.124.32.32,0,0,1,.038.153v7.31q0,.382-.4.382h-1.056a.338.338,0,0,1-.382-.382Z" transform="translate(-206.39 -105.949)" fill="#a8be19"/>
    <path id="Trazado_53" data-name="Trazado 53" d="M333.322,177.746a1,1,0,0,0,.032-.27,2.89,2.89,0,0,1,.013-.29,5.325,5.325,0,0,1-.487.452,3.3,3.3,0,0,1-.556.366,3.016,3.016,0,0,1-.65.244,3.059,3.059,0,0,1-.757.089,4.226,4.226,0,0,1-1.1-.14,3.952,3.952,0,0,1-1.8-1.03,4.058,4.058,0,0,1-.633-.821,4,4,0,0,1-.407-.98,4.212,4.212,0,0,1-.143-1.107,4.259,4.259,0,0,1,.143-1.107,4.161,4.161,0,0,1,.407-1,4.247,4.247,0,0,1,.633-.843,3.982,3.982,0,0,1,.821-.652,4.03,4.03,0,0,1,2.074-.57,3.266,3.266,0,0,1,.766.086,3.049,3.049,0,0,1,.675.245,3.487,3.487,0,0,1,.588.375,4.118,4.118,0,0,1,.5.471c.017-.115.032-.227.047-.337s.029-.223.041-.337a.726.726,0,0,1,.112-.277.326.326,0,0,1,.276-.1c.141,0,.279,0,.417,0s.277,0,.417,0a.373.373,0,0,1,.258.1.345.345,0,0,1,.112.268v6.489a4.471,4.471,0,0,1-.338,1.81,3.569,3.569,0,0,1-.916,1.272,3.783,3.783,0,0,1-1.346.754,5.238,5.238,0,0,1-1.625.248,4.416,4.416,0,0,1-.729-.061,5.08,5.08,0,0,1-.716-.172,4.428,4.428,0,0,1-.668-.273,3.594,3.594,0,0,1-.579-.366.481.481,0,0,1-.137-.124.293.293,0,0,1-.055-.182.427.427,0,0,1,.013-.1.353.353,0,0,1,.063-.124l.477-.693a.771.771,0,0,1,.128-.124.211.211,0,0,1,.127-.041.774.774,0,0,1,.117.026.393.393,0,0,1,.137.076,1.348,1.348,0,0,0,.379.226,3.4,3.4,0,0,0,.471.152,3.582,3.582,0,0,0,.49.086,4.152,4.152,0,0,0,.435.026,3.291,3.291,0,0,0,.9-.121,2.582,2.582,0,0,0,.764-.349,2.008,2.008,0,0,0,.547-.554,1.572,1.572,0,0,0,.251-.726m-4.7-3.486a2.621,2.621,0,0,0,.178.964,2.51,2.51,0,0,0,.5.8,2.376,2.376,0,0,0,.748.544,2.184,2.184,0,0,0,.938.2,2.309,2.309,0,0,0,.948-.2,2.528,2.528,0,0,0,1.508-2.252v-.1a2.488,2.488,0,0,0-.207-.942,2.57,2.57,0,0,0-.525-.782,2.493,2.493,0,0,0-.776-.534,2.32,2.32,0,0,0-.948-.2,2.194,2.194,0,0,0-.938.2,2.378,2.378,0,0,0-.748.545,2.513,2.513,0,0,0-.5.8,2.608,2.608,0,0,0-.178.958" transform="translate(-213.193 -110.95)" fill="#a8be19"/>
    <path id="Trazado_54" data-name="Trazado 54" d="M356.187,162.81a.335.335,0,0,1,.375-.383h1.069a.414.414,0,0,1,.286.1.363.363,0,0,1,.109.287v.952a.447.447,0,0,1-.1.278.343.343,0,0,1-.286.13h-1.068q-.382,0-.382-.408Zm0,2.817a.408.408,0,0,1,.1-.277.347.347,0,0,1,.279-.111h1.056a.39.39,0,0,1,.143.029.409.409,0,0,1,.131.083.517.517,0,0,1,.1.124.321.321,0,0,1,.038.153v7.31q0,.382-.4.382h-1.056a.338.338,0,0,1-.382-.382Z" transform="translate(-232.337 -105.949)" fill="#a8be19"/>
    <path id="Trazado_55" data-name="Trazado 55" d="M369.171,174.859a3.107,3.107,0,0,1-.944-.153,2.29,2.29,0,0,1-.77-.423,2,2,0,0,1-.519-.681,2.133,2.133,0,0,1-.191-.92v-4.3h-.732a.407.407,0,0,1-.277-.082.351.351,0,0,1-.092-.273v-.912a.322.322,0,0,1,.092-.26.431.431,0,0,1,.277-.076h.732c0-.224,0-.449,0-.671s0-.446,0-.671a.258.258,0,0,1,.079-.2.7.7,0,0,1,.245-.131l.261-.092q.153-.054.315-.1c.108-.034.213-.063.315-.086a1.182,1.182,0,0,1,.255-.035.269.269,0,0,1,.257.108.584.584,0,0,1,.061.286q0,.4,0,.8t0,.8h.916a.353.353,0,0,1,.255.086.358.358,0,0,1,.089.269V168a.4.4,0,0,1-.089.291.344.344,0,0,1-.255.089h-.916v1.207c0,.147,0,.284,0,.411s0,.265,0,.414v1.211a.121.121,0,0,1,0,.025.09.09,0,0,0,0,.026v.834a.9.9,0,0,0,.166.606.688.688,0,0,0,.535.185.254.254,0,0,1,.21.1.353.353,0,0,1,.076.229v.884a.32.32,0,0,1-.35.35" transform="translate(-238.507 -107.489)" fill="#a8be19"/>
    <path id="Trazado_56" data-name="Trazado 56" d="M388.761,177.955a.32.32,0,0,1-.172.3.536.536,0,0,1-.175.057,1.264,1.264,0,0,1-.206.016h-.8a.33.33,0,0,1-.283-.108.737.737,0,0,1-.118-.274l-.039-.54a3.949,3.949,0,0,1-.493.417,3.5,3.5,0,0,1-.582.337,3.334,3.334,0,0,1-.661.223,3.2,3.2,0,0,1-.719.08,4.037,4.037,0,0,1-1.1-.15,4.239,4.239,0,0,1-1-.42,4.048,4.048,0,0,1-.843-.652,4.186,4.186,0,0,1-.648-.846,4.255,4.255,0,0,1-.42-1,4.221,4.221,0,0,1,0-2.227,4.247,4.247,0,0,1,.42-1,4.115,4.115,0,0,1,1.492-1.492,4.273,4.273,0,0,1,1-.42,4.065,4.065,0,0,1,1.1-.15,3.424,3.424,0,0,1,.776.086,3.343,3.343,0,0,1,.691.242,3.176,3.176,0,0,1,.595.376,3.648,3.648,0,0,1,.5.481l.089-.681c.021-.076.041-.139.06-.188a.367.367,0,0,1,.07-.117.209.209,0,0,1,.1-.061.679.679,0,0,1,.159-.016h.636a1.121,1.121,0,0,1,.2.018.728.728,0,0,1,.185.061.311.311,0,0,1,.178.3Zm-6.617-3.671a2.612,2.612,0,0,0,.179.964,2.5,2.5,0,0,0,.5.8,2.378,2.378,0,0,0,.748.544,2.186,2.186,0,0,0,.938.2,2.332,2.332,0,0,0,.964-.2,2.468,2.468,0,0,0,.779-.544,2.574,2.574,0,0,0,.522-.8,2.517,2.517,0,0,0,0-1.922,2.575,2.575,0,0,0-.522-.8,2.524,2.524,0,0,0-.779-.548,2.307,2.307,0,0,0-.964-.2,2.162,2.162,0,0,0-.938.2,2.433,2.433,0,0,0-.748.548,2.5,2.5,0,0,0-.5.8,2.594,2.594,0,0,0-.179.958" transform="translate(-248.102 -110.961)" fill="#a8be19"/>
    <path id="Trazado_57" data-name="Trazado 57" d="M409.32,164a.415.415,0,0,1,.089-.273.334.334,0,0,1,.273-.108H410.8a.34.34,0,0,1,.239.108.366.366,0,0,1,.111.273v9.715a.367.367,0,0,1-.1.287.4.4,0,0,1-.283.1H409.7a.373.373,0,0,1-.289-.1.416.416,0,0,1-.086-.287Z" transform="translate(-266.994 -106.725)" fill="#a8be19"/>
    <path id="Trazado_58" data-name="Trazado 58" d="M425.72,177.465a4.549,4.549,0,0,1-1.224.751,3.8,3.8,0,0,1-1.46.273,4.156,4.156,0,0,1-1.629-.324,4.269,4.269,0,0,1-2.268-2.217,3.955,3.955,0,0,1-.341-1.638,4.262,4.262,0,0,1,.538-2.083,4.159,4.159,0,0,1,.627-.846,3.974,3.974,0,0,1,.824-.659,4.015,4.015,0,0,1,.986-.423,4.136,4.136,0,0,1,1.123-.15,3.913,3.913,0,0,1,.954.118,4.2,4.2,0,0,1,.894.334,4.27,4.27,0,0,1,.792.525,3.774,3.774,0,0,1,1.209,1.848,4.927,4.927,0,0,1,.178,1.368,2.439,2.439,0,0,1-.016.309.388.388,0,0,1-.079.2.369.369,0,0,1-.192.112,1.408,1.408,0,0,1-.356.035h-5.643a2.154,2.154,0,0,0,.315.811,2.433,2.433,0,0,0,.551.6,2.318,2.318,0,0,0,.694.369,2.379,2.379,0,0,0,.751.124,2.574,2.574,0,0,0,.55-.057,2.855,2.855,0,0,0,.493-.153,2.72,2.72,0,0,0,.423-.219,2.5,2.5,0,0,0,.341-.258s0-.006.006-.006a.865.865,0,0,1,.146-.111.28.28,0,0,1,.146-.041.286.286,0,0,1,.131.038.454.454,0,0,1,.143.127c.115.14.212.257.293.35s.146.171.2.235a.982.982,0,0,1,.111.165.307.307,0,0,1,.035.139.478.478,0,0,1-.242.357m-2.824-5.739a2.025,2.025,0,0,0-.732.137,2.451,2.451,0,0,0-.652.372,2.572,2.572,0,0,0-.515.554,2.272,2.272,0,0,0-.321.687h4.5a2.476,2.476,0,0,0-.309-.709,2.276,2.276,0,0,0-.5-.553,2.195,2.195,0,0,0-.668-.359,2.49,2.49,0,0,0-.808-.127" transform="translate(-273.177 -110.985)" fill="#a8be19"/>
    <path id="Trazado_59" data-name="Trazado 59" d="M446.457,176.031a1.364,1.364,0,0,0,.337.362,2.326,2.326,0,0,0,.417.252,2.064,2.064,0,0,0,.407.143,1.432,1.432,0,0,0,.309.045,2.754,2.754,0,0,0,.42-.039,1.733,1.733,0,0,0,.454-.137,1.089,1.089,0,0,0,.363-.267.623.623,0,0,0,.15-.429.679.679,0,0,0-.118-.414.922.922,0,0,0-.318-.264,2.253,2.253,0,0,0-.458-.175c-.172-.047-.353-.1-.544-.152a5.334,5.334,0,0,1-1.139-.43,2.911,2.911,0,0,1-.773-.575,2.071,2.071,0,0,1-.442-.712,2.467,2.467,0,0,1-.14-.846,2.159,2.159,0,0,1,.2-.942,2.135,2.135,0,0,1,.572-.732,2.687,2.687,0,0,1,.888-.474,3.713,3.713,0,0,1,1.148-.168,3.614,3.614,0,0,1,.8.079,2.631,2.631,0,0,1,.649.238,2.742,2.742,0,0,1,.563.4,6.043,6.043,0,0,1,.537.566.351.351,0,0,1,.1.222.282.282,0,0,1-.127.217q-.1.076-.226.191t-.257.223a2.63,2.63,0,0,1-.242.184.374.374,0,0,1-.191.077.367.367,0,0,1-.274-.165,2.846,2.846,0,0,0-.28-.29,1.431,1.431,0,0,0-.293-.2,1.386,1.386,0,0,0-.331-.121,1.714,1.714,0,0,0-.388-.041,1.348,1.348,0,0,0-.359.051,1.208,1.208,0,0,0-.344.153.992.992,0,0,0-.261.245.531.531,0,0,0-.1.321.5.5,0,0,0,.13.347,1.183,1.183,0,0,0,.33.248,2.417,2.417,0,0,0,.435.175c.157.047.3.089.438.127a8.181,8.181,0,0,1,1.073.381,3.291,3.291,0,0,1,.842.525,2.209,2.209,0,0,1,.549.725,2.269,2.269,0,0,1,.2.977,2.334,2.334,0,0,1-.234,1.059,2.3,2.3,0,0,1-.65.792,2.972,2.972,0,0,1-.984.5,4.249,4.249,0,0,1-1.237.171,3.989,3.989,0,0,1-.814-.086,3.447,3.447,0,0,1-.792-.267,3.042,3.042,0,0,1-.7-.465,2.519,2.519,0,0,1-.537-.671.565.565,0,0,1-.1-.286.245.245,0,0,1,.041-.143.55.55,0,0,1,.112-.118l.712-.547a.344.344,0,0,1,.172-.058.236.236,0,0,1,.159.061,1.262,1.262,0,0,1,.153.162" transform="translate(-290.339 -110.939)" fill="#a8be19"/>
  </g>
</svg>
